<svg xmlns="http://www.w3.org/2000/svg" width="600" height="200" style="background:#0b0f19;font-family:monospace">
<rect x="40" y="20.0" width="540" height="56.0" fill="#ff444422"/>
<rect x="40" y="76.0" width="540" height="42.0" fill="#ffaa0022"/>
<rect x="40" y="118.0" width="540" height="42.0" fill="#44bb4422"/>
<line x1="40" y1="160.0" x2="580" y2="160.0" stroke="#ffffff18" stroke-width="1"/>
<text x="35" y="164.0" fill="#888" font-size="10" text-anchor="end">0</text>
<line x1="40" y1="132.0" x2="580" y2="132.0" stroke="#ffffff18" stroke-width="1"/>
<text x="35" y="136.0" fill="#888" font-size="10" text-anchor="end">2</text>
<line x1="40" y1="104.0" x2="580" y2="104.0" stroke="#ffffff18" stroke-width="1"/>
<text x="35" y="108.0" fill="#888" font-size="10" text-anchor="end">4</text>
<line x1="40" y1="76.0" x2="580" y2="76.0" stroke="#ffffff18" stroke-width="1"/>
<text x="35" y="80.0" fill="#888" font-size="10" text-anchor="end">6</text>
<line x1="40" y1="48.0" x2="580" y2="48.0" stroke="#ffffff18" stroke-width="1"/>
<text x="35" y="52.0" fill="#888" font-size="10" text-anchor="end">8</text>
<line x1="40" y1="20.0" x2="580" y2="20.0" stroke="#ffffff18" stroke-width="1"/>
<text x="35" y="24.0" fill="#888" font-size="10" text-anchor="end">10</text>
<polyline points="40.0,160.0 61.6,118.0 83.2,160.0 104.8,76.0 126.4,132.0 148.0,160.0 169.6,132.0 191.2,132.0 212.8,104.0 234.4,48.0 256.0,48.0 277.6,48.0 299.2,104.0 320.8,104.0 342.4,132.0 364.0,160.0 385.6,132.0 407.2,132.0 428.8,132.0 450.4,160.0 472.0,160.0 493.6,132.0 515.2,160.0 536.8,132.0 558.4,160.0 580.0,160.0" fill="none" stroke="#4a9eff" stroke-width="2" stroke-linejoin="round"/>
<polygon points="40.0,160.0 40.0,160.0 61.6,118.0 83.2,160.0 104.8,76.0 126.4,132.0 148.0,160.0 169.6,132.0 191.2,132.0 212.8,104.0 234.4,48.0 256.0,48.0 277.6,48.0 299.2,104.0 320.8,104.0 342.4,132.0 364.0,160.0 385.6,132.0 407.2,132.0 428.8,132.0 450.4,160.0 472.0,160.0 493.6,132.0 515.2,160.0 536.8,132.0 558.4,160.0 580.0,160.0 580.0,160.0" fill="#4a9eff18"/>
<circle cx="40.0" cy="160.0" r="3" fill="#44bb44"/>
<circle cx="61.6" cy="118.0" r="3" fill="#ffaa00"/>
<circle cx="83.2" cy="160.0" r="3" fill="#44bb44"/>
<circle cx="104.8" cy="76.0" r="3" fill="#ff4444"/>
<circle cx="126.4" cy="132.0" r="3" fill="#44bb44"/>
<circle cx="148.0" cy="160.0" r="3" fill="#44bb44"/>
<circle cx="169.6" cy="132.0" r="3" fill="#44bb44"/>
<circle cx="191.2" cy="132.0" r="3" fill="#44bb44"/>
<circle cx="212.8" cy="104.0" r="3" fill="#ffaa00"/>
<circle cx="234.4" cy="48.0" r="3" fill="#ff4444"/>
<circle cx="256.0" cy="48.0" r="3" fill="#ff4444"/>
<circle cx="277.6" cy="48.0" r="3" fill="#ff4444"/>
<circle cx="299.2" cy="104.0" r="3" fill="#ffaa00"/>
<circle cx="320.8" cy="104.0" r="3" fill="#ffaa00"/>
<circle cx="342.4" cy="132.0" r="3" fill="#44bb44"/>
<circle cx="364.0" cy="160.0" r="3" fill="#44bb44"/>
<circle cx="385.6" cy="132.0" r="3" fill="#44bb44"/>
<circle cx="407.2" cy="132.0" r="3" fill="#44bb44"/>
<circle cx="428.8" cy="132.0" r="3" fill="#44bb44"/>
<circle cx="450.4" cy="160.0" r="3" fill="#44bb44"/>
<circle cx="472.0" cy="160.0" r="3" fill="#44bb44"/>
<circle cx="493.6" cy="132.0" r="3" fill="#44bb44"/>
<circle cx="515.2" cy="160.0" r="3" fill="#44bb44"/>
<circle cx="536.8" cy="132.0" r="3" fill="#44bb44"/>
<circle cx="558.4" cy="160.0" r="3" fill="#44bb44"/>
<circle cx="580.0" cy="160.0" r="3" fill="#44bb44"/>
<text x="40.0" y="195" fill="#666" font-size="9" text-anchor="middle">03-18</text>
<text x="148.0" y="195" fill="#666" font-size="9" text-anchor="middle">03-23</text>
<text x="256.0" y="195" fill="#666" font-size="9" text-anchor="middle">03-28</text>
<text x="364.0" y="195" fill="#666" font-size="9" text-anchor="middle">04-02</text>
<text x="472.0" y="195" fill="#666" font-size="9" text-anchor="middle">04-07</text>
<text x="580.0" y="195" fill="#666" font-size="9" text-anchor="middle">04-12</text>
<text x="575.0" y="152.0" fill="#44bb44" font-size="11" text-anchor="end" font-weight="bold">score=0</text>
<text x="40" y="14" fill="#aaa" font-size="11">風險評分 30日走勢</text>
</svg>