<svg xmlns="http://www.w3.org/2000/svg" width="600" height="200" style="background:#0b0f19;font-family:monospace">
<rect x="40" y="20.0" width="540" height="56.0" fill="#ff444422"/>
<rect x="40" y="76.0" width="540" height="42.0" fill="#ffaa0022"/>
<rect x="40" y="118.0" width="540" height="42.0" fill="#44bb4422"/>
<line x1="40" y1="160.0" x2="580" y2="160.0" stroke="#ffffff18" stroke-width="1"/>
<text x="35" y="164.0" fill="#888" font-size="10" text-anchor="end">0</text>
<line x1="40" y1="132.0" x2="580" y2="132.0" stroke="#ffffff18" stroke-width="1"/>
<text x="35" y="136.0" fill="#888" font-size="10" text-anchor="end">2</text>
<line x1="40" y1="104.0" x2="580" y2="104.0" stroke="#ffffff18" stroke-width="1"/>
<text x="35" y="108.0" fill="#888" font-size="10" text-anchor="end">4</text>
<line x1="40" y1="76.0" x2="580" y2="76.0" stroke="#ffffff18" stroke-width="1"/>
<text x="35" y="80.0" fill="#888" font-size="10" text-anchor="end">6</text>
<line x1="40" y1="48.0" x2="580" y2="48.0" stroke="#ffffff18" stroke-width="1"/>
<text x="35" y="52.0" fill="#888" font-size="10" text-anchor="end">8</text>
<line x1="40" y1="20.0" x2="580" y2="20.0" stroke="#ffffff18" stroke-width="1"/>
<text x="35" y="24.0" fill="#888" font-size="10" text-anchor="end">10</text>
<polyline points="40.0,104.0 58.6,48.0 77.2,48.0 95.9,48.0 114.5,104.0 133.1,104.0 151.7,132.0 170.3,160.0 189.0,132.0 207.6,132.0 226.2,132.0 244.8,160.0 263.4,160.0 282.1,132.0 300.7,160.0 319.3,132.0 337.9,160.0 356.6,160.0 375.2,132.0 393.8,160.0 412.4,160.0 431.0,160.0 449.7,160.0 468.3,160.0 486.9,160.0 505.5,132.0 524.1,160.0 542.8,160.0 561.4,160.0 580.0,132.0" fill="none" stroke="#4a9eff" stroke-width="2" stroke-linejoin="round"/>
<polygon points="40.0,160.0 40.0,104.0 58.6,48.0 77.2,48.0 95.9,48.0 114.5,104.0 133.1,104.0 151.7,132.0 170.3,160.0 189.0,132.0 207.6,132.0 226.2,132.0 244.8,160.0 263.4,160.0 282.1,132.0 300.7,160.0 319.3,132.0 337.9,160.0 356.6,160.0 375.2,132.0 393.8,160.0 412.4,160.0 431.0,160.0 449.7,160.0 468.3,160.0 486.9,160.0 505.5,132.0 524.1,160.0 542.8,160.0 561.4,160.0 580.0,132.0 580.0,160.0" fill="#4a9eff18"/>
<circle cx="40.0" cy="104.0" r="3" fill="#ffaa00"/>
<circle cx="58.6" cy="48.0" r="3" fill="#ff4444"/>
<circle cx="77.2" cy="48.0" r="3" fill="#ff4444"/>
<circle cx="95.9" cy="48.0" r="3" fill="#ff4444"/>
<circle cx="114.5" cy="104.0" r="3" fill="#ffaa00"/>
<circle cx="133.1" cy="104.0" r="3" fill="#ffaa00"/>
<circle cx="151.7" cy="132.0" r="3" fill="#44bb44"/>
<circle cx="170.3" cy="160.0" r="3" fill="#44bb44"/>
<circle cx="189.0" cy="132.0" r="3" fill="#44bb44"/>
<circle cx="207.6" cy="132.0" r="3" fill="#44bb44"/>
<circle cx="226.2" cy="132.0" r="3" fill="#44bb44"/>
<circle cx="244.8" cy="160.0" r="3" fill="#44bb44"/>
<circle cx="263.4" cy="160.0" r="3" fill="#44bb44"/>
<circle cx="282.1" cy="132.0" r="3" fill="#44bb44"/>
<circle cx="300.7" cy="160.0" r="3" fill="#44bb44"/>
<circle cx="319.3" cy="132.0" r="3" fill="#44bb44"/>
<circle cx="337.9" cy="160.0" r="3" fill="#44bb44"/>
<circle cx="356.6" cy="160.0" r="3" fill="#44bb44"/>
<circle cx="375.2" cy="132.0" r="3" fill="#44bb44"/>
<circle cx="393.8" cy="160.0" r="3" fill="#44bb44"/>
<circle cx="412.4" cy="160.0" r="3" fill="#44bb44"/>
<circle cx="431.0" cy="160.0" r="3" fill="#44bb44"/>
<circle cx="449.7" cy="160.0" r="3" fill="#44bb44"/>
<circle cx="468.3" cy="160.0" r="3" fill="#44bb44"/>
<circle cx="486.9" cy="160.0" r="3" fill="#44bb44"/>
<circle cx="505.5" cy="132.0" r="3" fill="#44bb44"/>
<circle cx="524.1" cy="160.0" r="3" fill="#44bb44"/>
<circle cx="542.8" cy="160.0" r="3" fill="#44bb44"/>
<circle cx="561.4" cy="160.0" r="3" fill="#44bb44"/>
<circle cx="580.0" cy="132.0" r="3" fill="#44bb44"/>
<text x="40.0" y="195" fill="#666" font-size="9" text-anchor="middle">03-26</text>
<text x="133.1" y="195" fill="#666" font-size="9" text-anchor="middle">03-31</text>
<text x="226.2" y="195" fill="#666" font-size="9" text-anchor="middle">04-05</text>
<text x="319.3" y="195" fill="#666" font-size="9" text-anchor="middle">04-10</text>
<text x="412.4" y="195" fill="#666" font-size="9" text-anchor="middle">04-15</text>
<text x="505.5" y="195" fill="#666" font-size="9" text-anchor="middle">04-20</text>
<text x="580.0" y="195" fill="#666" font-size="9" text-anchor="middle">04-24</text>
<text x="575.0" y="124.0" fill="#44bb44" font-size="11" text-anchor="end" font-weight="bold">score=2</text>
<text x="40" y="14" fill="#aaa" font-size="11">風險評分 30日走勢</text>
</svg>