<svg xmlns="http://www.w3.org/2000/svg" width="600" height="200" style="background:#0b0f19;font-family:monospace">
<rect x="40" y="20.0" width="540" height="56.0" fill="#ff444422"/>
<rect x="40" y="76.0" width="540" height="42.0" fill="#ffaa0022"/>
<rect x="40" y="118.0" width="540" height="42.0" fill="#44bb4422"/>
<line x1="40" y1="160.0" x2="580" y2="160.0" stroke="#ffffff18" stroke-width="1"/>
<text x="35" y="164.0" fill="#888" font-size="10" text-anchor="end">0</text>
<line x1="40" y1="132.0" x2="580" y2="132.0" stroke="#ffffff18" stroke-width="1"/>
<text x="35" y="136.0" fill="#888" font-size="10" text-anchor="end">2</text>
<line x1="40" y1="104.0" x2="580" y2="104.0" stroke="#ffffff18" stroke-width="1"/>
<text x="35" y="108.0" fill="#888" font-size="10" text-anchor="end">4</text>
<line x1="40" y1="76.0" x2="580" y2="76.0" stroke="#ffffff18" stroke-width="1"/>
<text x="35" y="80.0" fill="#888" font-size="10" text-anchor="end">6</text>
<line x1="40" y1="48.0" x2="580" y2="48.0" stroke="#ffffff18" stroke-width="1"/>
<text x="35" y="52.0" fill="#888" font-size="10" text-anchor="end">8</text>
<line x1="40" y1="20.0" x2="580" y2="20.0" stroke="#ffffff18" stroke-width="1"/>
<text x="35" y="24.0" fill="#888" font-size="10" text-anchor="end">10</text>
<polyline points="40.0,160.0 78.6,118.0 117.1,160.0 155.7,76.0 194.3,132.0 232.9,160.0 271.4,132.0 310.0,132.0 348.6,104.0 387.1,48.0 425.7,48.0 464.3,48.0 502.9,104.0 541.4,104.0 580.0,132.0" fill="none" stroke="#4a9eff" stroke-width="2" stroke-linejoin="round"/>
<polygon points="40.0,160.0 40.0,160.0 78.6,118.0 117.1,160.0 155.7,76.0 194.3,132.0 232.9,160.0 271.4,132.0 310.0,132.0 348.6,104.0 387.1,48.0 425.7,48.0 464.3,48.0 502.9,104.0 541.4,104.0 580.0,132.0 580.0,160.0" fill="#4a9eff18"/>
<circle cx="40.0" cy="160.0" r="3" fill="#44bb44"/>
<circle cx="78.6" cy="118.0" r="3" fill="#ffaa00"/>
<circle cx="117.1" cy="160.0" r="3" fill="#44bb44"/>
<circle cx="155.7" cy="76.0" r="3" fill="#ff4444"/>
<circle cx="194.3" cy="132.0" r="3" fill="#44bb44"/>
<circle cx="232.9" cy="160.0" r="3" fill="#44bb44"/>
<circle cx="271.4" cy="132.0" r="3" fill="#44bb44"/>
<circle cx="310.0" cy="132.0" r="3" fill="#44bb44"/>
<circle cx="348.6" cy="104.0" r="3" fill="#ffaa00"/>
<circle cx="387.1" cy="48.0" r="3" fill="#ff4444"/>
<circle cx="425.7" cy="48.0" r="3" fill="#ff4444"/>
<circle cx="464.3" cy="48.0" r="3" fill="#ff4444"/>
<circle cx="502.9" cy="104.0" r="3" fill="#ffaa00"/>
<circle cx="541.4" cy="104.0" r="3" fill="#ffaa00"/>
<circle cx="580.0" cy="132.0" r="3" fill="#44bb44"/>
<text x="40.0" y="195" fill="#666" font-size="9" text-anchor="middle">03-18</text>
<text x="232.9" y="195" fill="#666" font-size="9" text-anchor="middle">03-23</text>
<text x="425.7" y="195" fill="#666" font-size="9" text-anchor="middle">03-28</text>
<text x="580.0" y="195" fill="#666" font-size="9" text-anchor="middle">04-01</text>
<text x="575.0" y="124.0" fill="#44bb44" font-size="11" text-anchor="end" font-weight="bold">score=2</text>
<text x="40" y="14" fill="#aaa" font-size="11">風險評分 30日走勢</text>
</svg>