<svg xmlns="http://www.w3.org/2000/svg" width="600" height="200" style="background:#0b0f19;font-family:monospace">
<rect x="40" y="20.0" width="540" height="56.0" fill="#ff444422"/>
<rect x="40" y="76.0" width="540" height="42.0" fill="#ffaa0022"/>
<rect x="40" y="118.0" width="540" height="42.0" fill="#44bb4422"/>
<line x1="40" y1="160.0" x2="580" y2="160.0" stroke="#ffffff18" stroke-width="1"/>
<text x="35" y="164.0" fill="#888" font-size="10" text-anchor="end">0</text>
<line x1="40" y1="132.0" x2="580" y2="132.0" stroke="#ffffff18" stroke-width="1"/>
<text x="35" y="136.0" fill="#888" font-size="10" text-anchor="end">2</text>
<line x1="40" y1="104.0" x2="580" y2="104.0" stroke="#ffffff18" stroke-width="1"/>
<text x="35" y="108.0" fill="#888" font-size="10" text-anchor="end">4</text>
<line x1="40" y1="76.0" x2="580" y2="76.0" stroke="#ffffff18" stroke-width="1"/>
<text x="35" y="80.0" fill="#888" font-size="10" text-anchor="end">6</text>
<line x1="40" y1="48.0" x2="580" y2="48.0" stroke="#ffffff18" stroke-width="1"/>
<text x="35" y="52.0" fill="#888" font-size="10" text-anchor="end">8</text>
<line x1="40" y1="20.0" x2="580" y2="20.0" stroke="#ffffff18" stroke-width="1"/>
<text x="35" y="24.0" fill="#888" font-size="10" text-anchor="end">10</text>
<polyline points="40.0,160.0 68.4,118.0 96.8,160.0 125.3,76.0 153.7,132.0 182.1,160.0 210.5,132.0 238.9,132.0 267.4,104.0 295.8,48.0 324.2,48.0 352.6,48.0 381.1,104.0 409.5,104.0 437.9,132.0 466.3,160.0 494.7,132.0 523.2,132.0 551.6,132.0 580.0,160.0" fill="none" stroke="#4a9eff" stroke-width="2" stroke-linejoin="round"/>
<polygon points="40.0,160.0 40.0,160.0 68.4,118.0 96.8,160.0 125.3,76.0 153.7,132.0 182.1,160.0 210.5,132.0 238.9,132.0 267.4,104.0 295.8,48.0 324.2,48.0 352.6,48.0 381.1,104.0 409.5,104.0 437.9,132.0 466.3,160.0 494.7,132.0 523.2,132.0 551.6,132.0 580.0,160.0 580.0,160.0" fill="#4a9eff18"/>
<circle cx="40.0" cy="160.0" r="3" fill="#44bb44"/>
<circle cx="68.4" cy="118.0" r="3" fill="#ffaa00"/>
<circle cx="96.8" cy="160.0" r="3" fill="#44bb44"/>
<circle cx="125.3" cy="76.0" r="3" fill="#ff4444"/>
<circle cx="153.7" cy="132.0" r="3" fill="#44bb44"/>
<circle cx="182.1" cy="160.0" r="3" fill="#44bb44"/>
<circle cx="210.5" cy="132.0" r="3" fill="#44bb44"/>
<circle cx="238.9" cy="132.0" r="3" fill="#44bb44"/>
<circle cx="267.4" cy="104.0" r="3" fill="#ffaa00"/>
<circle cx="295.8" cy="48.0" r="3" fill="#ff4444"/>
<circle cx="324.2" cy="48.0" r="3" fill="#ff4444"/>
<circle cx="352.6" cy="48.0" r="3" fill="#ff4444"/>
<circle cx="381.1" cy="104.0" r="3" fill="#ffaa00"/>
<circle cx="409.5" cy="104.0" r="3" fill="#ffaa00"/>
<circle cx="437.9" cy="132.0" r="3" fill="#44bb44"/>
<circle cx="466.3" cy="160.0" r="3" fill="#44bb44"/>
<circle cx="494.7" cy="132.0" r="3" fill="#44bb44"/>
<circle cx="523.2" cy="132.0" r="3" fill="#44bb44"/>
<circle cx="551.6" cy="132.0" r="3" fill="#44bb44"/>
<circle cx="580.0" cy="160.0" r="3" fill="#44bb44"/>
<text x="40.0" y="195" fill="#666" font-size="9" text-anchor="middle">03-18</text>
<text x="182.1" y="195" fill="#666" font-size="9" text-anchor="middle">03-23</text>
<text x="324.2" y="195" fill="#666" font-size="9" text-anchor="middle">03-28</text>
<text x="466.3" y="195" fill="#666" font-size="9" text-anchor="middle">04-02</text>
<text x="580.0" y="195" fill="#666" font-size="9" text-anchor="middle">04-06</text>
<text x="575.0" y="152.0" fill="#44bb44" font-size="11" text-anchor="end" font-weight="bold">score=0</text>
<text x="40" y="14" fill="#aaa" font-size="11">風險評分 30日走勢</text>
</svg>