<svg xmlns="http://www.w3.org/2000/svg" width="600" height="200" style="background:#0b0f19;font-family:monospace">
<rect x="40" y="20.0" width="540" height="56.0" fill="#ff444422"/>
<rect x="40" y="76.0" width="540" height="42.0" fill="#ffaa0022"/>
<rect x="40" y="118.0" width="540" height="42.0" fill="#44bb4422"/>
<line x1="40" y1="160.0" x2="580" y2="160.0" stroke="#ffffff18" stroke-width="1"/>
<text x="35" y="164.0" fill="#888" font-size="10" text-anchor="end">0</text>
<line x1="40" y1="132.0" x2="580" y2="132.0" stroke="#ffffff18" stroke-width="1"/>
<text x="35" y="136.0" fill="#888" font-size="10" text-anchor="end">2</text>
<line x1="40" y1="104.0" x2="580" y2="104.0" stroke="#ffffff18" stroke-width="1"/>
<text x="35" y="108.0" fill="#888" font-size="10" text-anchor="end">4</text>
<line x1="40" y1="76.0" x2="580" y2="76.0" stroke="#ffffff18" stroke-width="1"/>
<text x="35" y="80.0" fill="#888" font-size="10" text-anchor="end">6</text>
<line x1="40" y1="48.0" x2="580" y2="48.0" stroke="#ffffff18" stroke-width="1"/>
<text x="35" y="52.0" fill="#888" font-size="10" text-anchor="end">8</text>
<line x1="40" y1="20.0" x2="580" y2="20.0" stroke="#ffffff18" stroke-width="1"/>
<text x="35" y="24.0" fill="#888" font-size="10" text-anchor="end">10</text>
<polyline points="40.0,160.0 73.8,118.0 107.5,160.0 141.2,76.0 175.0,132.0 208.8,160.0 242.5,132.0 276.2,132.0 310.0,104.0 343.8,48.0 377.5,48.0 411.2,48.0 445.0,104.0 478.8,104.0 512.5,132.0 546.2,160.0 580.0,132.0" fill="none" stroke="#4a9eff" stroke-width="2" stroke-linejoin="round"/>
<polygon points="40.0,160.0 40.0,160.0 73.8,118.0 107.5,160.0 141.2,76.0 175.0,132.0 208.8,160.0 242.5,132.0 276.2,132.0 310.0,104.0 343.8,48.0 377.5,48.0 411.2,48.0 445.0,104.0 478.8,104.0 512.5,132.0 546.2,160.0 580.0,132.0 580.0,160.0" fill="#4a9eff18"/>
<circle cx="40.0" cy="160.0" r="3" fill="#44bb44"/>
<circle cx="73.8" cy="118.0" r="3" fill="#ffaa00"/>
<circle cx="107.5" cy="160.0" r="3" fill="#44bb44"/>
<circle cx="141.2" cy="76.0" r="3" fill="#ff4444"/>
<circle cx="175.0" cy="132.0" r="3" fill="#44bb44"/>
<circle cx="208.8" cy="160.0" r="3" fill="#44bb44"/>
<circle cx="242.5" cy="132.0" r="3" fill="#44bb44"/>
<circle cx="276.2" cy="132.0" r="3" fill="#44bb44"/>
<circle cx="310.0" cy="104.0" r="3" fill="#ffaa00"/>
<circle cx="343.8" cy="48.0" r="3" fill="#ff4444"/>
<circle cx="377.5" cy="48.0" r="3" fill="#ff4444"/>
<circle cx="411.2" cy="48.0" r="3" fill="#ff4444"/>
<circle cx="445.0" cy="104.0" r="3" fill="#ffaa00"/>
<circle cx="478.8" cy="104.0" r="3" fill="#ffaa00"/>
<circle cx="512.5" cy="132.0" r="3" fill="#44bb44"/>
<circle cx="546.2" cy="160.0" r="3" fill="#44bb44"/>
<circle cx="580.0" cy="132.0" r="3" fill="#44bb44"/>
<text x="40.0" y="195" fill="#666" font-size="9" text-anchor="middle">03-18</text>
<text x="208.8" y="195" fill="#666" font-size="9" text-anchor="middle">03-23</text>
<text x="377.5" y="195" fill="#666" font-size="9" text-anchor="middle">03-28</text>
<text x="546.2" y="195" fill="#666" font-size="9" text-anchor="middle">04-02</text>
<text x="580.0" y="195" fill="#666" font-size="9" text-anchor="middle">04-03</text>
<text x="575.0" y="124.0" fill="#44bb44" font-size="11" text-anchor="end" font-weight="bold">score=2</text>
<text x="40" y="14" fill="#aaa" font-size="11">風險評分 30日走勢</text>
</svg>